# xmcd
#
# Track frame offsets:
#	150
#	11475
#	29735
#	43562
#	53372
#	71167
#	82170
#	97717
#	110427
#	124095
#	139707
#	154545
#	169592
#	184655
#	192352
#	206187
#	216405
#	227677
#	238927
#	249415
#	259190
#	278027
#
# Disc length: 3913 seconds
#
# Revision: 1
# Processed by: cddbd v1.5.1PL0 Copyright (c) Steve Scherf et al.
# Submitted via: EasyCDDAExtractor 8.2.2.1
#
DISCID=370f4716
DTITLE=Greenhorns - Hity z let 1969 - 1976
DYEAR=1991
DGENRE=Country
TTITLE0=Blues Folsomske veznice
TTITLE1=Divka s vlasem medovym
TTITLE2=A slunce pali jen
TTITLE3=Honzuv song
TTITLE4=Co se bude dit
TTITLE5=Casey Jones
TTITLE6=El Paso
TTITLE7=Blues hvizdaveho vlaku
TTITLE8=Blizko Little Big Hornu
TTITLE9=Posledni sklenka
TTITLE10=Odvolejte kneze
TTITLE11=Divnej smich
TTITLE12=Zluta kytka
TTITLE13=Vlak v 0,5
TTITLE14=Na Vanoce rano
TTITLE15=Hej, Joe
TTITLE16=Sest bilejch koni
TTITLE17=Nevahej
TTITLE18=Kdyz tata hral
TTITLE19=Sest dni na silnici
TTITLE20=Cervena reka
TTITLE21=Hromskej den
EXTD=
EXTT0=
EXTT1=
EXTT2=
EXTT3=
EXTT4=
EXTT5=
EXTT6=
EXTT7=
EXTT8=
EXTT9=
EXTT10=
EXTT11=
EXTT12=
EXTT13=
EXTT14=
EXTT15=
EXTT16=
EXTT17=
EXTT18=
EXTT19=
EXTT20=
EXTT21=
PLAYORDER=
